<svg id="Layer_1" enable-background="new 0 0 510 510" height="512" viewBox="0 0 510 510" width="512" xmlns="http://www.w3.org/2000/svg"><g><path d="m89.999 0v30h165l10-15-10-15z" fill="#ebf1f9"/><path d="m239.999 105.167v14.833l7.5 10 7.5-10 10-19.207-10-29.207c-9.201 8.274-15 20.262-15 33.581z" fill="#ebf1f9"/><path d="m419.999 0h-165v30h165c8.271 0 15 6.729 15 15s-6.729 15-15 15h-134.833c-11.586 0-22.163 4.389-30.167 11.586v48.414l7.875 10 7.125-10v-14.833c0-8.363 6.804-15.167 15.167-15.167h134.833c24.813 0 45-20.188 45-45s-20.186-45-45-45z" fill="#ced8e8"/><path d="m224.999 120v60l15 10 15-10 10-31-10-29z" fill="#ced8e8"/><path d="m284.999 120h-30v60l15 10 15-10z" fill="#b4bccb"/><path d="m163.505 180c-15.162-27.64-44.052-45-76.166-45-23.909 0-46.191 9.503-62.742 26.758-16.551 17.254-25.117 39.913-24.12 63.846l9.348 209.396 80.174 15 74.853-15 1.25-45h88.897l10-105-10-105z" fill="#6058ad"/><path d="m9.855 435.676c1.736 41.677 35.771 74.324 77.484 74.324h.647c20.083 0 39.086-7.698 53.507-21.676 14.402-13.958 22.686-32.68 23.334-52.723l.025-.602h-155.027z" fill="#ea1c81"/><path d="m485.402 161.758c-16.551-17.255-38.833-26.758-62.744-26.758-32.114 0-61.003 17.36-76.166 45h-91.493v210h88.898l1.253 44.956c0 .015.002.029.002.044l86.514 10 68.508-10 9.35-209.441c.995-23.888-7.572-46.547-24.122-63.801z" fill="#453f81"/><path d="m345.152 435c.664 20.2 9.019 39.066 23.535 53.137 14.547 14.098 33.714 21.863 53.971 21.863 41.714 0 75.749-32.647 77.483-74.279l.032-.721z" fill="#bc00a2"/><circle cx="104.999" cy="300" fill="#9bda05" r="45"/><path d="m179.999 285h60v30h-60z" fill="#76e2f8"/><path d="m269.999 285h60v30h-60z" fill="#ff9721"/><path d="m449.999 285h-30v-30h-30v30h-30v30h30v30h30v-30h30z" fill="#bc00a2"/></g></svg>